<?xml version="1.0" encoding="UTF-8" standalone="no"?>
<svg
   version="1.1"
   id="Layer_1"
   x="0px"
   y="0px"
   width="553.96545"
   viewBox="0 0 553.96545 497.28909"
   enable-background="new 0 0 1024 1024"
   xml:space="preserve"
   sodipodi:docname="occiglot_logo.svg"
   inkscape:version="1.2 (dc2aeda, 2022-05-15)"
   inkscape:export-filename="occiglot_logo.png"
   inkscape:export-xdpi="96"
   inkscape:export-ydpi="96"
   height="497.28909"
   xmlns:inkscape="http://www.inkscape.org/namespaces/inkscape"
   xmlns:sodipodi="http://sodipodi.sourceforge.net/DTD/sodipodi-0.dtd"
   xmlns="http://www.w3.org/2000/svg"
   xmlns:svg="http://www.w3.org/2000/svg"><defs
   id="defs155" /><sodipodi:namedview
   id="namedview153"
   pagecolor="#505050"
   bordercolor="#eeeeee"
   borderopacity="1"
   inkscape:showpageshadow="0"
   inkscape:pageopacity="0"
   inkscape:pagecheckerboard="0"
   inkscape:deskcolor="#505050"
   showgrid="false"
   inkscape:zoom="0.62355217"
   inkscape:cx="342.39316"
   inkscape:cy="245.3684"
   inkscape:window-width="1390"
   inkscape:window-height="916"
   inkscape:window-x="122"
   inkscape:window-y="38"
   inkscape:window-maximized="0"
   inkscape:current-layer="Layer_1" />
<path
   fill="#000000"
   opacity="1"
   stroke="none"
   d="m 328.63852,420.85813 c 2.7586,1.03571 4.77386,2.48151 6.39911,4.44269 2.14404,2.5871 2.24871,5.49689 0.96887,8.43884 -1.19336,2.74317 -3.70886,3.02692 -6.31726,3.00415 -1.99585,-0.0174 -4.04676,-0.25445 -5.97827,0.1095 -5.78858,1.09101 -7.672,6.84387 -3.80964,11.24805 7.745,8.83142 6.53266,16.13159 -3.97509,21.57538 -6.84528,3.54632 -10.4079,8.86761 -11.32715,16.44384 -1.35529,11.1692 -9.07227,14.42865 -17.9176,7.64509 -4.1731,-3.2005 -8.55826,-5.54773 -13.84159,-6.48041 -5.23654,-0.92438 -8.63742,-4.73987 -8.45636,-8.50287 0.19236,-3.99768 4.23908,-7.15363 9.87097,-7.40063 4.15754,-0.18232 8.33121,0.0365 12.49356,-0.0767 5.4029,-0.14697 10.05146,-2.46026 14.02131,-5.87365 6.22607,-5.35346 6.20672,-13.82056 0.0375,-19.2237 -4.15698,-3.64081 -8.14136,-7.39618 -11.20538,-12.02502 -4.47748,-6.76428 -10.85629,-10.74091 -18.65262,-12.40528 -13.44467,-2.87011 -22.04959,-11.70422 -28.7457,-22.94384 -1.70254,-2.85773 -3.0907,-5.90168 -4.76397,-8.77814 -6.19764,-10.65418 -17.88175,-12.33289 -26.8769,-3.8656 -3.14511,2.96051 -5.56912,6.60412 -9.11816,9.2171 -5.82318,4.28729 -10.43317,4.58124 -16.52762,0.55994 -3.05301,-2.01435 -5.84445,-4.49097 -9.0563,-6.18604 -8.65397,-4.56701 -15.32895,-1.26165 -17.55021,8.26935 -0.65481,2.80975 -0.62786,5.61597 -0.67941,8.44086 -0.14981,8.21252 -3.17529,12.57904 -10.95511,15.35882 -6.22897,2.22565 -12.98385,3.16553 -18.18283,7.81018 -8.17022,7.29914 -13.93701,15.56287 -12.42953,27.36554 0.66614,5.2157 -3.11844,10.92121 -8.63712,12.76166 -8.786501,2.93042 -16.229821,7.32031 -21.785221,14.99597 -3.30575,4.56745 -8.28955,5.49695 -13.44516,3.1026 -8.68438,-4.03308 -16.8573,-3.34729 -25.33941,1.04462 -8.26108,4.2774 -14.29553,0.74915 -15.95697,-8.42584 -0.62103,-3.42957 -1.06421,-6.89356 -2.70609,-10.08411 -2.94516,-5.72302 -7.43899,-8.81409 -13.97023,-8.70917 -1.66598,0.0268 -3.33166,0.0898 -4.9976503,0.0961 -5.4528,0.0204 -8.97711002,-2.99493 -9.11931002,-8.34698 -0.19909,-7.49329 -0.0636,-14.99628 -0.0254,-22.49481 0.0172,-3.38276 1.48747002,-6.23639 4.03853002,-8.28107 13.3339203,-10.68707 15.8793603,-26.15796 17.7323103,-41.52496 1.358,-11.26221 7.13057,-16.49524 18.1151,-13.10737 15.74448,4.85596 31.27411,10.40449 46.94864,15.49372 4.22284,1.37109 8.48486,3.17596 13.132781,2.12842 8.73441,-1.96851 12.87512,-7.21711 13.77756,-18.9104 0.58807,-7.62006 0.58685,-15.33796 0.14428,-22.97114 -0.48053,-8.28698 -5.41809,-14.16363 -12.24557,-18.39233 -3.955381,-2.44983 -8.188961,-4.45221 -12.308901,-6.63403 -1.63123,-0.86377 -3.16519,-1.82392 -4.35913,-3.27783 -2.30737,-2.80994 -3.19501,-5.96772 -1.57605,-9.29499 1.67084,-3.4339 5.30826,-5.17395 8.3876,-3.86218 10.932681,4.65729 20.705811,2.31903 30.310861,-3.42206 1.6185,-0.96734 3.53051,-0.47247 5.37619,-0.15924 10.16351,1.72516 18.92294,0.24463 23.97988,-10.26044 1.88529,-3.91644 5.3292,-6.58056 9.55094,-7.50457 9.90948,-2.16883 16.64447,-8.46894 19.73022,-17.44641 5.0878,-14.80197 14.62632,-21.08875 29.98368,-19.26365 3.22979,0.38385 6.25055,-0.91854 8.94818,-2.68167 5.27026,-3.44458 6.83832,-9.84921 3.03427,-14.6589 -3.12384,-3.94959 -4.20734,-8.03226 -3.87088,-12.92472 0.33081,-4.81106 -0.0439,-9.6669 0.16638,-14.49105 0.2244,-5.14664 3.59631,-8.3526 8.55951,-8.55173 5.62912,-0.22586 9.05035,2.33472 10.06183,7.53387 1.12405,5.77771 0.58362,11.63047 0.784,17.44983 0.23956,6.95746 3.60766,10.47709 10.63391,10.27256 5.29245,-0.15409 9.94854,0.82855 13.64437,4.77246 6.46232,6.89599 13.87232,7.12643 21.82377,3.11651 2.3656,-1.19299 4.7835,-2.50827 6.73089,-4.26309 6.46344,-5.82428 13.79584,-6.07208 21.51508,-3.6521 5.89111,1.84696 11.61889,2.49552 17.5647,0.15973 9.63281,-3.78424 11.32446,-10.97705 4.03509,-18.21509 -2.43256,-2.41543 -3.83429,-5.04056 -2.69202,-8.49695 1.22095,-3.69436 4.146,-5.1455 7.71527,-5.24066 5.995,-0.15982 11.99665,-0.0831 17.99549,-0.0822 25.99634,0.004 51.99835,-0.29215 77.98602,0.18707 9.50433,0.17523 16.50238,-3.00653 22.82416,-9.85596 13.10528,-14.19897 26.8822,-27.77902 39.95062,-42.01055 5.987,-6.51981 13.10016,-5.40159 20.33569,-4.81217 2.28003,0.18576 3.56385,2.37537 4.81794,4.11172 5.62317,7.78562 9.54828,16.41404 11.96136,25.67261 1.59076,6.10373 -1.04675,9.22602 -7.33905,9.2197 -9.49853,-0.01 -18.99701,-0.0779 -28.49554,-0.11038 -1.49927,-0.005 -3.00879,-0.0545 -4.49622,0.0919 -5.10651,0.50271 -9.02637,4.57455 -8.86957,9.11908 0.15717,4.55545 3.74244,8.13363 8.98249,8.23388 11.49414,0.21997 22.99401,0.14761 34.49151,0.18622 2.49854,0.008 4.9961,-0.0847 7.43939,0.64011 4.20996,1.24881 7.54761,5.50015 7.11335,9.12643 -0.4704,3.92822 -4.22455,7.23944 -8.74897,7.51105 -2.82409,0.16949 -5.67505,-0.0725 -8.49383,0.13882 -5.58142,0.41858 -8.28687,3.29511 -8.33508,8.5716 -0.0496,5.42108 2.84936,9.04284 8.1181,9.53988 3.63629,0.34305 7.32995,0.0239 10.98981,0.18515 5.73632,0.25269 8.8457,3.44471 9.04181,9.10224 0.45318,13.07214 0.13134,17.77719 -17.00269,17.67407 -62.32257,-0.37509 -124.64868,-0.22162 -186.97327,-0.14063 -5.4433,0.007 -9.80353,-0.8132 -13.50744,-5.5372 -4.0102,-5.11462 -10.50605,-5.64193 -15.83448,-2.50943 -5.09893,2.99759 -7.77411,9.34812 -6.34997,15.07416 1.6629,6.68622 6.14837,10.67285 12.68915,10.62946 4.13159,-0.0274 8.25836,-1.1446 12.38745,-1.14579 66.49072,-0.0192 132.98144,0.064 199.47216,0.11502 2.84156,0.002 5.67841,0.008 8.38343,1.02845 3.95599,1.49249 6.79236,4.29861 6.29712,8.5704 -0.50806,4.38233 -3.62891,7.10535 -8.22388,7.3053 -3.65228,0.15887 -7.33289,0.0441 -10.98279,-0.20959 -5.17901,-0.36011 -10.32001,-0.12061 -15.4671,0.39764 -4.03528,0.40631 -7.03168,2.18018 -7.94202,6.35248 -0.90075,4.12872 0.10083,7.59375 4.07044,9.7901 1.16131,0.64251 2.32696,1.33752 3.3294,2.19659 4.41651,3.78455 4.49567,9.2959 -0.0636,12.88684 -3.65949,2.88226 -7.67755,5.34241 -12.00324,7.12048 -8.28882,3.40729 -15.08801,-0.69378 -15.91571,-9.63995 -0.56177,-6.07233 -3.70239,-9.70557 -9.43726,-11.47162 -15.60284,-4.80499 -29.69464,5.32691 -30.01135,21.64685 -0.17731,9.13636 -2.5307,11.3277 -11.82867,11.14948 -2.66052,-0.051 -5.34845,-0.12348 -7.98194,0.17865 -4.82147,0.55322 -7.41137,3.41333 -7.44458,7.80572 -0.0362,4.79694 2.97028,8.41321 7.71497,8.81415 3.47546,0.29364 7.01965,-0.13843 10.47876,0.24457 6.1535,0.68146 8.54065,5.17517 6.00928,10.76892 -3.37799,7.46454 -1.75653,13.23822 5.53479,17.71307 9.7799,6.00214 20.02881,6.64014 30.49749,1.6875 5.06904,-2.39819 9.1717,-6.05902 12.83539,-10.19329 6.00885,-6.78071 13.14478,-10.45984 22.49024,-9.48389 4.28552,0.44751 8.65844,0.007 12.9898,0.0811 4.38257,0.0753 8.15107,-1.2871 11.37531,-4.27807 1.08978,-1.01099 2.2937,-1.95288 3.5824,-2.6853 3.63391,-2.06531 7.42193,-2.21601 10.80804,0.31891 3.30164,2.47167 3.80609,6.03533 2.81006,9.91296 -4.38159,17.05755 -11.53778,32.96789 -19.88171,48.39978 -4.61078,8.52746 -9.76429,16.65893 -16.24811,23.92151 -2.94696,3.3009 -5.65393,5.31976 -10.70612,3.61694 -6.80761,-2.29449 -13.04608,0.23029 -16.67395,6.62824 -7.18377,12.66894 -17.00104,11.57092 -26.19501,5.96728 -14.86334,-9.05908 -24.36724,-21.90442 -25.79016,-39.81842 -0.28643,-3.60657 0.50354,-7.03534 2.46558,-10.02338 2.38348,-3.62994 0.82929,-5.41644 -2.56885,-6.72326 -9.90973,-3.8114 -19.64783,-2.45575 -29.26471,1.04388 -5.1983,1.89172 -10.06829,4.43335 -13.95391,8.52527 -8.29731,8.73779 -5.75611,21.46607 5.24645,26.39124 1.51648,0.67877 3.06665,1.36084 4.42621,2.29595 3.1153,2.14252 4.7713,5.14326 4.21784,8.98316 -0.50635,3.51233 -2.88843,5.88934 -6.11249,6.55359 -6.00098,1.23645 -8.5166,4.47375 -7.84796,10.54608 0.43023,3.90729 -1.32099,6.79071 -5.04871,8.27234 -3.71405,1.47613 -6.92303,0.25915 -9.61621,-2.29114 -4.04217,-3.82758 -5.88074,-8.83649 -6.75348,-14.1831 -1.05548,-6.46564 -3.52038,-12.35383 -8.39319,-16.64777 -7.59466,-6.69238 -10.57251,-15.08283 -10.6651,-24.82806 -0.0934,-9.84687 -4.62225,-16.69166 -12.81372,-22.23395 -8.57409,-5.80109 -17.19018,-10.06787 -27.79669,-8.94092 -3.39471,0.36066 -5.61285,-1.76996 -7.69025,-3.97034 -7.5487,-7.9953 -15.03527,-16.04925 -22.57843,-24.04986 -3.52954,-3.74359 -7.83722,-4.84174 -12.77273,-3.45185 -5.15235,1.45105 -8.22617,4.95789 -9.38599,10.05463 -1.15335,5.06848 0.62699,9.63 4.64817,12.39301 10.52697,7.23333 18.04211,17.23706 25.70416,27.05279 6.91888,8.86353 16.94427,10.54218 26.73749,13.09845 3.37426,0.88068 6.72448,1.85339 10.4411,2.93768 m -30.77578,-81.671 c 10.82178,-0.004 21.64368,0.01 32.46539,-0.0224 3.83319,-0.0113 6.91718,-1.58253 8.3208,-5.23463 1.22803,-3.19531 0.45746,-6.2445 -2.05096,-8.70697 -2.17316,-2.1333 -4.89661,-2.63494 -7.81903,-2.63366 -12.65338,0.005 -25.3067,-0.0357 -37.96008,-0.0394 -27.97086,-0.008 -55.94178,-0.0271 -83.91257,0.0121 -6.5864,0.009 -11.31601,3.14782 -13.48691,9.13513 -1.94754,5.37127 -1.41955,10.48462 2.72458,14.83612 5.43021,5.70172 14.37863,5.05688 20.5881,-2.13111 3.41962,-3.95855 7.19892,-5.26458 12.20221,-5.2351 22.64206,0.1333 45.28553,0.034 68.92847,0.0199 M 485.45181,239.11961 c 8.26416,0.58865 13.69049,-2.43234 15.98608,-8.89993 1.98395,-5.58966 0.14032,-11.83945 -4.48486,-15.2031 -6.28479,-4.57055 -12.21423,-4.35431 -18.60235,1.00366 -1.8816,1.57822 -3.83625,1.71451 -6.01789,1.71164 -12.31885,-0.0163 -24.63861,-0.0933 -36.95605,0.0393 -4.72302,0.0508 -8.91651,-0.44632 -13.11652,-3.30286 -5.92242,-4.02801 -13.88092,-2.28933 -17.47046,2.86698 -4.14093,5.94824 -3.42767,14.14972 1.62342,18.66659 5.19549,4.64603 13.27063,4.48157 18.49218,-0.78256 2.33533,-2.35434 4.73841,-3.21103 7.94617,-3.17395 10.9856,0.12695 21.97558,0.16525 32.95984,-0.0152 5.27417,-0.0866 10.22894,-0.13913 13.96326,4.6062 1.00128,1.27231 3.21136,1.59333 5.67718,2.48322 m -83.43243,133.74585 c -8.86176,1.24792 -15.40375,-2.41095 -20.29133,-9.58276 -0.18499,-0.27149 -0.46984,-0.47272 -0.67706,-0.73163 -4.77722,-5.9701 -11.15271,-7.95411 -18.56561,-7.7428 -9.97345,0.28436 -19.95282,0.35974 -29.92993,0.50995 -4.32453,0.0651 -8.65955,-0.0751 -12.97174,0.18145 -5.10132,0.30353 -7.98236,3.26697 -7.98676,7.75171 -0.005,4.59961 3.19202,8.22632 7.87537,8.77259 1.64404,0.19171 3.32306,0.10913 4.98608,0.10986 11.64588,0.005 23.29376,0.12305 34.93665,-0.0643 4.6726,-0.0752 8.44006,1.37659 11.57989,4.73004 1.70514,1.82111 3.732,3.41773 5.10822,5.45679 5.92718,8.78192 14.72009,8.68262 23.65472,7.64258 4.15534,-0.48371 7.63983,-2.69495 8.38483,-7.33417 0.71301,-4.44068 -0.79016,-7.86756 -6.10333,-9.69934 m 3.3927,-71.02045 c -9.60053,-8.53277 -21.65467,-8.41571 -29.85608,0.28992 -7.56037,8.02514 -7.41071,21.2417 0.32751,28.93799 7.99884,7.95544 21.35865,8.04028 29.87354,0.18969 8.43365,-7.77569 8.50146,-19.53888 -0.34497,-29.4176 m -45.84363,-73.47375 c 2.5094,8.87503 9.57867,13.00415 17.30548,10.10803 7.57458,-2.83905 11.20715,-11.22144 7.95001,-18.34534 -2.59173,-5.66849 -9.02417,-8.70999 -15.42993,-7.29584 -6.39844,1.41251 -9.89294,6.59842 -9.82556,15.53315 m -123.40146,69.56323 c 4.25021,7.27862 11.22876,9.58063 18.13266,5.98157 6.36584,-3.31867 8.78992,-10.04517 5.96606,-16.55542 -2.70291,-6.23145 -10.17404,-9.4419 -16.74401,-7.19519 -6.79697,2.32446 -9.9621,9.37597 -7.35471,17.76904 M 190.2576,281.61011 c -4.74073,3.55694 -7.46711,8.11914 -6.0192,14.15179 1.81372,7.55695 10.26642,11.69702 17.77081,9.00879 6.3331,-2.26868 9.59296,-9.88653 7.0242,-16.41473 -3.1354,-7.96826 -10.34314,-10.8132 -18.77581,-6.74585 m 86.85415,12.90869 c 0.32618,1.28674 0.51071,2.63055 1.00302,3.85028 2.15607,5.34192 8.9267,8.12616 14.63111,6.09387 6.15668,-2.19342 9.4245,-8.43579 7.47101,-14.27118 -1.85883,-5.55255 -6.92487,-8.8645 -12.71015,-8.30926 -6.00287,0.57605 -9.29141,4.30157 -10.39499,12.63629 m 68.29465,13.47192 c 6.24481,-3.26202 8.52374,-8.37884 6.15723,-13.82446 -2.11353,-4.86352 -8.00989,-7.55151 -12.87854,-5.87115 -5.3321,1.84039 -8.27582,7.33337 -6.84516,12.77301 1.44904,5.50903 6.65003,8.38507 13.56647,6.9226 z"
   id="path132" />
<path
   fill="#000000"
   opacity="1"
   stroke="none"
   d="m 438.36386,120.67234 c -4.83179,0.003 -9.16394,-0.0168 -13.49579,0.0117 -6.26324,0.0412 -10.20898,3.33072 -10.13208,8.40393 0.074,4.88867 3.74469,7.94101 10.11859,7.99674 12.66199,0.11071 25.32538,0.0432 37.98822,0.072 1.66229,0.004 3.36481,-0.0609 4.97705,0.26285 2.49518,0.50103 4.81122,1.51068 5.86847,4.12039 1.1438,2.82336 -0.99194,4.31412 -2.59613,5.93298 -8.91119,8.99295 -17.90698,17.90274 -26.75861,26.95368 -2.74267,2.80447 -5.72582,4.17913 -9.73156,4.04022 -8.48255,-0.29416 -16.97791,0.12073 -25.46503,-0.58899 -2.82898,-0.23657 -5.14239,-0.97449 -7.12482,-2.99402 -9.56738,-9.74695 -19.13018,-19.49896 -28.77801,-29.16599 -2.5705,-2.57559 -2.37109,-4.61328 0.0956,-7.18316 11.3045,-11.77732 22.47455,-23.68369 33.71131,-35.52618 2.18273,-2.30048 4.37945,-4.566717 5.76751,-7.483127 1.73627,-3.64816 1.06488,-6.8923 -1.89673,-9.46567 -2.99389,-2.60129 -6.37103,-2.93438 -9.50415,-0.2207 -7.30987,6.33124 -13.9234,13.37781 -20.53186,20.419797 -3.64697,3.88617 -7.68652,7.52313 -10.70007,11.86212 -8.8656,12.76514 -23.01325,14.1814 -36.27252,17.28903 -5.83759,1.36823 -9.39411,-1.15524 -11.86902,-6.7669 -2.82617,-6.40802 -4.98181,-13.07605 -6.66748,-19.86447 -1.12818,-4.5434 0.0179,-8.55909 3.84393,-11.621797 4.3042,-3.44544 8.38916,-7.14426 11.51923,-11.72739 4.46332,-6.53528 4.56946,-13.41491 0.99579,-20.31817 -2.54993,-4.92557 -8.70649,-7.55317 -14.05848,-6.33014 -4.48309,1.02444 -8.45959,5.33935 -7.8891,10.81793 1.068,10.25458 -3.5133,17.31635 -11.07427,23.0394 -11.11854,8.415857 -13.69306,19.800927 -12.1955,32.876647 0.62823,5.48565 3.03265,9.24032 8.24609,11.40902 10.7439,4.46918 12.32294,12.6767 3.54224,20.2237 -6.36902,5.47418 -9.32275,11.87045 -8.69226,20.16644 0.23895,3.14481 0.0855,6.33298 -0.0739,9.49206 -0.53296,10.56305 -12.48697,21.97043 -23.00791,22.03766 -5.41281,0.0345 -8.99213,-2.84924 -8.35013,-8.16793 1.61359,-13.36811 -5.29825,-24.18308 -10.1084,-35.5308 -3.19049,-7.52694 -11.23129,-8.59674 -17.42071,-3.19104 -4.12512,3.60272 -7.81958,7.68064 -12.91483,10.10352 -10.11898,4.81183 -19.69488,-1.54083 -18.86831,-12.22617 0.78155,-10.10348 0.33865,-20.31765 0.12979,-30.47686 -0.17798,-8.65629 3.61426,-14.65241 11.23239,-18.39014 5.08307,-2.49399 10.06244,-5.32056 15.36847,-7.21243 9.58142,-3.4162 15.0899,-10.396177 18.97202,-19.307987 6.45065,-14.80823 13.42437,-29.39694 19.55087,-44.33523 4.53256,-11.05179 11.86465,-18.60207 23.0459,-22.69796 6.55835,-2.4024 12.95196,-5.25265 19.43261,-7.8695201 2.03852,-0.82315 3.90229,-1.84996 5.318,-3.59082 3.65222,-4.49104 8.39886,-6.18621998 14.1358,-5.92461998 5.15381,0.23499 10.33099,-0.0917 15.49152,0.054 7.42108,0.20952 10.83697,4.74764998 9.13415,11.86318008 -1.94488,8.12706 1.09503,12.06015 9.46252,12.17773 3.99811,0.0562 8.01038,0.24066 11.9936,-0.003 9.13372,-0.55924 17.53033,0.85785 24.62695,7.31042 2.37708,2.16135 5.63306,2.68827 8.91284,2.6608 6.83075,-0.0572 13.66242,0.0191 20.49365,7.9e-4 2.35407,-0.006 4.64692,0.23172 6.87268,1.05002 6.10126,2.24307 8.32654,7.0275 6.06928,13.10727 -3.11615,8.3934 1.54462,15.41022 10.65039,15.7923 4.82367,0.20239 9.66223,0.0703 14.49402,0.0523 2.90503,-0.0108 5.64551,0.56845 8.05688,2.23444 4.4751,3.09174 5.27503,8.42542 1.6145,12.384 -3.00714,3.25199 -4.38598,6.6225 -2.36437,10.85349 1.96228,4.10672 5.34515,5.7221 9.74871,5.56198 0.99848,-0.0363 2.02521,0.13553 2.99488,-0.0367 12.02789,-2.13568 18.12982,5.152097 22.81207,14.465757 3.46667,6.89578 0.88293,11.04153 -6.76679,11.06207 -20.49322,0.055 -40.98669,0.0415 -61.97973,0.0557 M 361.51175,47.777603 c -4.21869,2.42282 -4.5271,6.36303 -3.68067,10.44528 0.78382,3.78058 3.8982,5.61121 7.35285,5.66852 13.45776,0.22339 26.93011,0.37912 40.37927,-0.0275 6.51331,-0.19693 10.19757,-5.99862 8.09393,-11.50952 -1.56885,-4.10968 -5.0542,-5.6124 -9.1419,-5.6431 -12.79749,-0.0961 -25.59595,-0.0842 -38.39386,-0.0397 -1.28907,0.004 -2.57636,0.51449 -4.60962,1.10608 m 93.41577,38.73031 c -0.4607,-1.24307 -0.73181,-2.60321 -1.4148,-3.70898 -2.95385,-4.78204 -7.32873,-7.25827 -12.93927,-6.87677 -4.94207,0.33606 -8.9223,2.42657 -10.79669,7.46643 -2.10126,5.64935 -0.62842,10.59335 3.34192,14.66135 3.92139,4.017817 8.98224,4.079647 13.93384,2.270597 5.4812,-2.002537 7.93683,-6.333287 7.875,-13.812627 m -31.91437,81.575047 c 8.50769,0.37903 12.49896,-8.46009 8.68915,-13.8851 -2.36664,-3.36991 -5.63489,-5.16657 -9.85352,-3.95917 -4.41388,1.26336 -7.14923,4.16165 -7.22943,8.91836 -0.0861,5.10691 2.84711,7.83771 8.3938,8.92591 z"
   id="path134" />
<path
   fill="#000000"
   opacity="1"
   stroke="none"
   d="m 147.71374,245.05223 c 10.42185,9.10122 10.56534,11.10611 0.93442,20.82168 -14.49158,14.61893 -8.99155,12.61087 -29.73071,12.31674 -8.9162,-0.12646 -16.75098,1.24421 -23.674231,7.03852 -2.31143,1.93457 -5.237,2.97076 -8.25342,3.32354 -5.20517,0.60877 -10.33194,-3.49365 -10.64944,-8.35162 -0.30209,-4.62219 3.03845,-7.76422 8.64935,-8.13522 9.1402,-0.6044 11.37549,-4.90854 6.51435,-12.5437 -2.58808,-4.06495 -1.39896,-8.31058 3.32849,-11.4361 3.59817,-2.37894 7.662201,-4.09009 10.545561,-7.47595 8.01324,-9.40985 8.37131,-23.60129 -0.8851,-32.11521 -7.215641,-6.63681 -9.658481,-13.77914 -8.570531,-22.93795 0.27311,-2.29914 0.007,-4.65955 0.0338,-6.99125 0.0842,-7.39535 4.116971,-11.74524 11.466061,-12.39679 0.16574,-0.0147 0.33359,-0.007 0.49905,-0.0239 19.42679,-1.95541 25.21476,8.30328 19.93363,23.75146 -1.81955,5.32245 -1.15839,10.22007 1.11703,15.40668 4.00843,9.13672 7.35749,18.56311 10.96558,27.87482 1.70493,4.40005 3.96109,8.43365 7.77609,11.87427 z"
   id="path136" />
<path
   fill="#000000"
   opacity="1"
   stroke="none"
   d="m 28.972379,63.155313 c 0.0256,-3.30343 -0.004,-6.13754 0.0814,-8.9682 0.27054,-8.97348 8.50204,-14.6933 15.88174,-9.82708 8.34873,5.50522 16.9968,5.80664 26.19638,5.73172 7.46906,-0.0609 11.75034,4.51455 11.70154,11.846 -0.0266,3.99872 0.0836,8.00455 -0.11911,11.99445 -0.30166,5.93836 -4.60934,10.5105 -10.53598,10.63184 -10.99237,0.22506 -21.99649,0.22088 -32.98852,-0.0183 -6.17795,-0.13446 -9.8804,-3.75504 -10.43909,-9.96012 -0.32568,-3.61725 0.1203,-7.30395 0.22162,-11.43033 z"
   id="path138" />
<path
   fill="#000000"
   opacity="1"
   stroke="none"
   d="m 61.871919,255.08116 c -4.13193,2.28045 -7.87259,4.35342 -12.55167,2.71005 -6.267,-2.20108 -8.95007,-7.68982 -6.38483,-13.88709 0.95258,-2.30123 2.28769,-4.44101 3.33154,-6.70822 1.96473,-4.26736 3.27286,-8.44751 2.12079,-13.44906 -1.6445,-7.1395 2.36127,-11.81015 9.68326,-11.58951 6.47943,0.19528 12.13645,-1.33722 17.1492,-5.47037 2.85166,-2.35129 6.26602,-3.08188 9.88184,-2.47745 3.94555,0.65955 6.6224,2.98645 7.97329,6.7443 1.29462,3.60119 0.1204,6.61148 -2.66934,8.93637 -4.12759,3.43982 -6.06799,7.62481 -5.91122,13.09045 0.20962,7.30872 -4.55109,11.483 -10.3808,14.62726 -4.11014,2.21677 -8.18375,4.46616 -12.24206,7.47327 z"
   id="path140" />
<path
   fill="#000000"
   opacity="1"
   stroke="none"
   d="m 213.03128,445.42393 c 0.009,-5.78552 2.93145,-10.89548 5.7138,-15.84415 1.46365,-2.60327 -3.61071,-5.38327 -4.49411,-7.8414 -1.69677,-4.72168 -1.11569,-8.92358 2.87848,-12.16229 3.08402,-2.50073 9.38495,-2.05627 12.62805,0.58685 3.43827,2.80219 5.1351,11.66502 0.33914,14.18458 -8.79982,4.62299 -0.049,5.03021 2.31486,8.3944 0.99392,1.41449 1.33423,3.01911 1.3284,4.72559 -0.0228,6.65741 0.11581,13.31958 -0.0931,19.97095 -0.19443,6.19232 -4.50904,10.17572 -10.61814,10.23883 -5.52801,0.0571 -9.71569,-4.18604 -9.94384,-10.27576 -0.14322,-3.82318 -0.0435,-7.6554 -0.0536,-11.9776 z"
   id="path142"
   sodipodi:nodetypes="cssssssssssc" />
<path
   fill="#000000"
   opacity="1"
   stroke="none"
   d="m 357.35812,177.53547 c -5.47961,-0.0122 -10.46307,-0.12063 -15.44031,0.0101 -4.87555,0.12805 -8.93438,-0.90295 -10.68823,-6.125 -1.64691,-4.90365 0.0837,-10.82656 4.09522,-13.90963 6.54351,-5.02912 21.81964,-4.4917 27.85412,1.06301 3.78516,3.4841 7.46076,7.08762 11.16419,10.65973 1.43548,1.38465 3.13385,2.78974 2.23126,5.09653 -0.90259,2.30682 -3.08447,3.02677 -5.27307,3.11255 -4.47589,0.17541 -8.96228,0.0832 -13.94318,0.0927 z"
   id="path144" />
<path
   fill="#000000"
   opacity="1"
   stroke="none"
   d="m 426.509,476.41868 c 5.96478,0.14728 11.46143,-0.28363 16.93573,0.54218 4.37372,0.65979 6.96979,3.07385 7.53113,7.40069 0.51477,3.96765 -2.52448,8.53894 -6.74164,9.29682 -7.02148,1.26184 -14.12738,2.2818 -21.24036,2.73516 -5.76342,0.36725 -10.84735,-4.85363 -10.88787,-10.19995 -0.0421,-5.552 4.07281,-9.4104 10.42755,-9.74652 1.16265,-0.0615 2.33081,-0.0215 3.97546,-0.0284 z"
   id="path146" />
<path
   fill="#000000"
   opacity="1"
   stroke="none"
   d="m 156.31662,443.19969 c 4.80819,1.8988 7.59994,5.04901 6.9935,9.98071 -0.55277,4.4956 -4.68043,2.21028 -9.19749,3.22706 -4.57303,1.02936 -6.83727,4.55364 -9.37716,0.7603 -2.2944,-3.42669 -3.68708,-10.18668 0.23908,-10.27844 6.43162,-0.15031 6.5498,-4.71997 11.34207,-3.68963 z"
   id="path148"
   sodipodi:nodetypes="cssssc" />

<ellipse
   style="fill:#000000;stroke:#000000;stroke-width:0.32126;stroke-linecap:round;stroke-linejoin:round;stroke-opacity:1"
   id="path580"
   cx="390.85934"
   cy="316.30148"
   rx="7.7178788"
   ry="8.0185757" /></svg>
