<?xml version="1.0" encoding="UTF-8" standalone="no"?>
<svg
   version="1.1"
   id="Layer_1"
   x="0px"
   y="0px"
   width="100%"
   viewBox="0 0 200 200"
   enable-background="new 0 0 200 200"
   xml:space="preserve"
   sodipodi:docname="vCajdXlzRs0zAU-b_KJ_G.svg"
   inkscape:version="1.2 (dc2aeda, 2022-05-15)"
   xmlns:inkscape="http://www.inkscape.org/namespaces/inkscape"
   xmlns:sodipodi="http://sodipodi.sourceforge.net/DTD/sodipodi-0.dtd"
   xmlns="http://www.w3.org/2000/svg"
   xmlns:svg="http://www.w3.org/2000/svg"><defs
   id="defs4587" /><sodipodi:namedview
   id="namedview4585"
   pagecolor="#505050"
   bordercolor="#eeeeee"
   borderopacity="1"
   inkscape:showpageshadow="0"
   inkscape:pageopacity="0"
   inkscape:pagecheckerboard="0"
   inkscape:deskcolor="#505050"
   showgrid="false"
   inkscape:zoom="4.515"
   inkscape:cx="80.730897"
   inkscape:cy="100.22148"
   inkscape:window-width="1390"
   inkscape:window-height="1027"
   inkscape:window-x="2042"
   inkscape:window-y="25"
   inkscape:window-maximized="0"
   inkscape:current-layer="Layer_1" />

<path
   fill="#00F7D9"
   opacity="1.000000"
   stroke="none"
   d=" M49.500191,139.416855   C49.417892,133.431763 49.124573,127.440002 49.313633,121.463501   C49.496628,115.678780 53.446651,112.103134 59.362064,111.947433   C63.519691,111.837982 67.682526,111.940918 71.842834,111.915642   C80.099129,111.865486 83.616814,108.368103 83.645081,99.989983   C83.695053,85.178940 83.651146,70.367607 83.663719,55.556408   C83.672081,45.702236 86.537498,42.873573 96.467339,42.871487   C111.444969,42.868347 126.422623,42.852890 141.400208,42.878159   C149.186859,42.891293 152.731613,46.345982 152.741364,54.085934   C152.762329,70.726578 152.691422,87.367332 152.403946,104.740021   C150.129013,110.181206 146.449234,111.993149 141.455536,111.960846   C128.347855,111.876038 115.223244,112.345276 102.134880,111.835861   C83.765030,111.120888 83.120537,116.173538 84.097862,131.178757   C84.004829,133.656799 83.911797,136.134857 83.550995,139.281158   C81.449043,144.503922 77.965622,146.440384 73.177567,146.394226   C69.048874,146.354446 64.913971,146.254211 60.791740,146.423065   C55.366482,146.645325 51.561947,144.496353 49.500191,139.416855  z"
   id="path4578" />
<path
   fill="#002BF2"
   opacity="1.000000"
   stroke="none"
   d=" M84.343597,130.931244   C83.120537,116.173538 83.765030,111.120888 102.134880,111.835861   C115.223244,112.345276 128.347855,111.876038 141.455536,111.960846   C146.449234,111.993149 150.129013,110.181206 152.321564,105.197159   C153.716461,120.066216 152.717789,125.616928 134.467697,124.887566   C121.371315,124.364182 108.236412,124.865364 95.120171,124.746574   C90.339737,124.703278 86.707153,126.231636 84.343597,130.931244  z"
   id="path4580" />
<path
   fill="#002FF3"
   opacity="1.000000"
   stroke="none"
   d=" M49.395882,139.831284   C51.561947,144.496353 55.366482,146.645325 60.791740,146.423065   C64.913971,146.254211 69.048874,146.354446 73.177567,146.394226   C77.965622,146.440384 81.449043,144.503922 83.486603,139.749100   C84.618347,154.623169 84.334419,160.375656 65.424385,159.154388   C63.435024,159.025909 61.429218,159.177643 59.432953,159.125763   C53.213306,158.964188 49.540283,155.445984 49.261448,149.232025   C49.127323,146.243057 49.272739,143.241547 49.395882,139.831284  z"
   id="path4582" />
</svg>
